PathFileType  4	(X/Y/Z) C:\Users\antoi\Documents\MyRepositories\mobilecap\ResultsAnalysis
DataRate	CameraRate	NumFrames	NumMarkers	Units	OrigDataRate	OrigDataStartFrame	OrigNumFrames
100.0	100.0	7	51	mm	100.0	1	1383
Frame#	Time	r_knee			r_shank_antsup			r_ankle			r_calc			r_5meta			r_toe			L_knee			L_shank_antsup			L_ankle			L_calc			L_5meta			L_toe			r_sh2			r_sh3			r_sh4			L_sh2			L_sh3			r_thigh1			r_thigh2			r_thigh3			r_thigh4			r_thigh5			L_thigh1			L_thigh2			L_thigh3			L_thigh4			r.ASIS			r.PSIS			L.ASIS			L.PSIS			C7			R_Shoulder			L_Shoulder			R_Sternum			L_Sternum			R_humerus			R_elbow_med			R_elbow_lat			R_forearm			R_wrist_radius			R_wrist_ulna			L_humerus			L_elbow_med			L_elbow_lat			L_forearm			L_wrist_radius			L_wrist_ulna			R_HJC			L_HJC			R_HJC_reg			L_HJC_reg			
		X1	Y1	Z1	X2	Y2	Z2	X3	Y3	Z3	X4	Y4	Z4	X5	Y5	Z5	X6	Y6	Z6	X7	Y7	Z7	X8	Y8	Z8	X9	Y9	Z9	X10	Y10	Z10	X11	Y11	Z11	X12	Y12	Z12	X13	Y13	Z13	X14	Y14	Z14	X15	Y15	Z15	X16	Y16	Z16	X17	Y17	Z17	X18	Y18	Z18	X19	Y19	Z19	X20	Y20	Z20	X21	Y21	Z21	X22	Y22	Z22	X23	Y23	Z23	X24	Y24	Z24	X25	Y25	Z25	X26	Y26	Z26	X27	Y27	Z27	X28	Y28	Z28	X29	Y29	Z29	X30	Y30	Z30	X31	Y31	Z31	X32	Y32	Z32	X33	Y33	Z33	X34	Y34	Z34	X35	Y35	Z35	X36	Y36	Z36	X37	Y37	Z37	X38	Y38	Z38	X39	Y39	Z39	X40	Y40	Z40	X41	Y41	Z41	X42	Y42	Z42	X43	Y43	Z43	X44	Y44	Z44	X45	Y45	Z45	X46	Y46	Z46	X47	Y47	Z47	X48	Y48	Z48	X49	Y49	Z49	X50	Y50	Z50	X51	Y51	Z51	

1	0.00000000	-247.87460	454.57612	-408.12702	-221.85250	388.50814	-381.46820	-276.03174	95.21678	-423.03372	-343.17066	59.15145	-460.58206	-172.95533	45.50646	-396.01733	-130.74657	65.40372	-451.00390	-253.63258	453.33137	-822.39809	-209.53844	392.48554	-831.56417	-270.25598	94.72264	-807.04047	-340.16737	59.36073	-759.59880	-177.79459	43.45172	-832.11536	-129.45773	66.56672	-777.69457	-233.67658	276.07455	-378.81357	-294.73534	394.52873	-397.95246	-313.43668	279.98553	-399.01633	-297.65464	404.87812	-842.58969	-301.75762	282.75223	-844.75191	-531.26306	564.29597	-478.17619	-423.75058	558.57604	-446.84217	-414.80037	518.69811	-394.47162	-555.41078	480.41078	-404.99237	-439.99805	466.66076	-389.15569	-524.68689	552.24000	-792.89667	-386.73257	544.99193	-802.95922	-536.31610	439.67102	-823.09424	-394.61491	440.98848	-833.14162	-589.29870	590.81344	-490.35691	-765.46852	530.72844	-563.34372	-593.10656	585.09817	-751.76036	-769.35767	524.96747	-669.98103	-720.11606	1021.24577	-611.44063	-648.19567	971.06821	-460.81955	-658.78788	973.23339	-781.33538	-596.66708	941.77850	-599.82650	-599.68144	940.74396	-643.75257	-656.30626	735.84198	-378.58594	-684.63331	628.90317	-443.17215	-678.61651	654.54463	-363.78161	-570.29058	691.23681	-372.13058	-464.41340	724.92710	-397.47719	-452.80033	680.67943	-395.71839	-641.77807	839.33960	-832.66026	-694.65336	634.07325	-779.68939	-705.24452	635.78986	-851.49297	-599.18598	670.84293	-872.94667	-486.20793	704.64703	-863.62651	-473.36075	668.47150	-862.08746	-619.84281	494.34658	-518.60763	-620.99954	493.85807	-718.89606	-612.22289	491.38242	-521.28321	-618.50390	482.07839	-693.50355	
2	0.01000000	-247.90880	454.58877	-408.05181	-221.86528	388.49011	-381.51984	-276.04784	95.22871	-423.09305	-343.18205	59.15950	-460.62257	-172.97117	45.40273	-396.00623	-130.78832	65.30463	-450.95413	-253.62464	453.33488	-822.40573	-209.54264	392.47791	-831.56395	-270.26976	94.70857	-807.03196	-340.19986	59.39417	-759.57819	-177.83402	43.38582	-831.96722	-129.45006	66.59102	-777.73022	-233.70575	276.16219	-378.75203	-294.63805	394.60074	-397.86765	-313.44672	279.91689	-399.02047	-297.65978	404.86588	-842.58939	-302.12789	282.82472	-844.38151	-531.35621	564.20498	-478.22608	-423.61449	558.68734	-446.94378	-414.79129	518.76393	-394.49945	-555.34766	480.46856	-404.98568	-439.89519	466.78468	-389.06888	-524.68788	552.23748	-792.89187	-386.72341	545.00396	-802.97258	-536.31875	439.68919	-823.17445	-394.61355	440.93187	-833.15879	-589.12029	590.86194	-490.63558	-765.46902	530.89955	-563.29284	-593.10854	585.08829	-751.76789	-769.35401	524.94209	-670.08406	-720.00336	1021.35058	-611.61437	-648.24270	971.08432	-460.85439	-658.79907	973.21971	-781.35093	-596.60135	941.77745	-599.85660	-599.63675	940.72558	-643.84231	-656.22265	735.94047	-378.48879	-684.50912	628.70756	-443.12886	-678.58042	654.48322	-363.77528	-570.16133	691.20969	-372.08121	-464.33029	724.91896	-397.38753	-452.62175	680.87252	-395.56914	-641.79279	839.31190	-832.67633	-694.78714	634.92567	-779.70758	-705.25745	635.75677	-851.51899	-599.21254	670.65922	-873.03225	-486.12790	704.52247	-863.92725	-473.33322	668.35404	-862.06560	-619.76941	494.41396	-518.69563	-621.03530	493.83472	-718.98315	-612.34648	491.68216	-521.34575	-618.60478	482.08556	-693.37415	
3	0.02000000	-247.90806	454.58965	-408.04321	-221.85063	388.54951	-381.47004	-276.03755	95.22953	-423.10181	-343.17580	59.16043	-460.62459	-172.97141	45.39233	-396.01276	-130.78562	65.29643	-450.96667	-253.62759	453.32797	-822.41256	-209.54480	392.47367	-831.57204	-270.27473	94.69435	-807.02593	-340.21663	59.38874	-759.59792	-177.81041	43.41688	-832.04339	-129.44006	66.58595	-777.74158	-233.69585	276.14232	-378.73029	-294.64536	394.66027	-397.87669	-313.43739	279.92933	-399.02759	-297.65782	404.85405	-842.58909	-302.10584	282.82181	-844.39973	-531.37984	564.17734	-478.24327	-423.55700	558.71570	-446.97933	-414.81661	518.76928	-394.50867	-555.39116	480.41850	-404.98479	-439.92436	466.75667	-389.10573	-524.68219	552.22447	-792.88837	-386.72534	545.00107	-802.97511	-536.31973	439.71319	-823.30472	-394.60335	440.93618	-833.15901	-589.04365	590.87018	-490.74021	-765.47086	530.93889	-563.25575	-593.10321	585.07754	-751.77451	-769.34172	524.91409	-670.13427	-719.99170	1021.34505	-611.68034	-648.22679	971.05300	-460.97267	-658.80251	973.20368	-781.36028	-596.54318	941.76440	-599.91635	-599.58699	940.71967	-643.90156	-656.13032	736.00033	-378.44091	-684.43287	628.65583	-443.04492	-678.51855	654.53073	-363.72250	-570.08928	691.19947	-372.12244	-464.23804	724.97138	-397.40022	-452.50935	680.97725	-395.53113	-641.81359	839.29992	-832.78854	-694.81605	635.11769	-779.71216	-705.27592	635.72748	-851.54099	-599.18145	670.41752	-873.01822	-486.10707	704.38870	-864.07948	-473.30781	668.23238	-862.05214	-619.73045	494.42621	-518.72977	-621.03970	493.81614	-719.01694	-612.39069	491.77511	-521.37989	-618.61861	482.08145	-693.34024	
4	0.03000000	-247.89314	454.58281	-408.07722	-221.84816	388.59591	-381.42221	-276.03362	95.21927	-423.10352	-343.16896	59.15968	-460.60801	-172.94142	45.45967	-396.01797	-130.77066	65.33886	-451.01863	-253.63405	453.31081	-822.41432	-209.54838	392.46443	-831.57899	-270.27514	94.67299	-807.02294	-340.21883	59.36316	-759.65649	-177.77774	43.45746	-832.15797	-129.43443	66.56768	-777.74758	-233.69644	276.10080	-378.72474	-294.69601	394.67046	-397.91270	-313.42608	279.97439	-399.03086	-297.64993	404.83598	-842.59060	-301.98774	282.76861	-844.52070	-531.31974	564.21796	-478.22077	-423.53457	558.69690	-446.95166	-414.84154	518.71975	-394.49199	-555.49304	480.36143	-404.99953	-440.01519	466.69406	-389.16901	-524.68039	552.21059	-792.89277	-386.73505	544.99540	-802.98115	-536.32201	439.72104	-823.40312	-394.57410	440.98610	-833.22691	-589.03792	590.83536	-490.72560	-765.44556	530.87984	-563.24988	-593.09579	585.05627	-751.77837	-769.34388	524.90756	-670.13039	-720.02371	1021.28822	-611.66233	-648.09131	971.05665	-461.04667	-658.76669	973.16958	-781.33276	-596.48773	941.74696	-599.97723	-599.54469	940.71675	-643.91911	-656.02090	736.03293	-378.42206	-684.38828	628.77380	-442.98177	-678.41622	654.63192	-363.65820	-570.02934	691.16793	-372.16457	-464.13909	725.04879	-397.46821	-452.42253	681.01148	-395.61192	-641.83662	839.27807	-832.91114	-694.81029	635.01531	-779.71969	-705.30448	635.69541	-851.55879	-599.11690	670.20478	-872.99397	-486.10030	704.26953	-864.09763	-473.29327	668.12418	-862.03522	-619.71622	494.38574	-518.73408	-621.03228	493.79899	-719.02127	-612.31806	491.68414	-521.41116	-618.59064	482.07444	-693.38653	
5	0.04000000	-247.88878	454.58464	-408.09863	-221.85956	388.57363	-381.46636	-276.04779	95.22482	-423.13599	-343.17301	59.14863	-460.59539	-172.92954	45.50977	-396.02404	-130.77347	65.35281	-451.05222	-253.63530	453.28882	-822.40966	-209.54949	392.44248	-831.54856	-270.27935	94.64336	-807.02293	-340.21501	59.34176	-759.70355	-177.80404	43.40183	-832.07619	-129.44148	66.56001	-777.76884	-233.70842	276.17218	-378.70182	-294.70746	394.64414	-397.90021	-313.42675	279.99203	-399.02785	-297.64904	404.81145	-842.59207	-302.10302	282.74326	-844.40844	-531.22597	564.31136	-478.21355	-423.49989	558.72254	-446.95116	-414.84129	518.68778	-394.47761	-555.51542	480.41948	-405.01202	-440.01739	466.77717	-389.10147	-524.68315	552.19752	-792.90471	-386.74131	544.99660	-803.00077	-536.32953	439.70788	-823.42566	-394.56345	440.99216	-833.28308	-589.03483	590.78682	-490.71088	-765.40761	530.82428	-563.28012	-593.09605	585.02707	-751.78525	-769.35409	524.91667	-670.08130	-719.98204	1021.27634	-611.67258	-647.93939	971.13371	-461.02314	-658.74364	973.13351	-781.36333	-596.40991	941.74035	-599.98329	-599.51165	940.71109	-643.93441	-655.91190	736.04831	-378.41000	-684.32772	628.92509	-442.97046	-678.29606	654.69075	-363.62126	-569.92830	691.09969	-372.13422	-464.03963	725.09834	-397.49492	-452.30213	681.02114	-395.69844	-641.85253	839.22441	-832.93565	-694.83102	634.97779	-779.73256	-705.34419	635.64765	-851.56715	-599.08555	670.09650	-873.02169	-486.07356	704.16961	-864.04367	-473.29401	668.03846	-862.00213	-619.70481	494.33643	-518.74123	-621.03676	493.77846	-719.02838	-612.22772	491.57597	-521.44515	-618.58314	482.06247	-693.43686	
6	0.05000000	-247.90968	454.64439	-408.08765	-221.85457	388.55453	-381.51670	-276.04651	95.26027	-423.14205	-343.18410	59.11660	-460.58028	-172.97606	45.48002	-396.04127	-130.76634	65.33989	-451.05315	-253.63586	453.26761	-822.40602	-209.54335	392.41692	-831.48438	-270.28429	94.61781	-807.02777	-340.21400	59.32561	-759.70223	-177.84955	43.31749	-831.93262	-129.45543	66.55709	-777.79117	-233.72723	276.25016	-378.67618	-294.73920	394.62353	-397.91434	-313.43062	279.97912	-399.02218	-297.66244	404.79215	-842.59300	-302.25888	282.76054	-844.24286	-531.17844	564.42596	-478.21773	-423.47673	558.78840	-447.00902	-414.84077	518.71513	-394.47797	-555.43879	480.52932	-405.00003	-439.93758	466.91930	-388.98431	-524.68329	552.17444	-792.91799	-386.74499	544.98999	-803.01690	-536.33704	439.67900	-823.39118	-394.60334	440.91338	-833.20026	-589.01919	590.75537	-490.71548	-765.42009	530.79816	-563.29968	-593.09704	584.99570	-751.79886	-769.33751	524.90266	-670.01210	-719.86729	1021.30075	-611.74839	-647.90861	971.15633	-461.03828	-658.84343	973.10374	-781.57447	-596.30637	941.74993	-599.95533	-599.46813	940.71007	-643.99959	-655.81979	736.05423	-378.41365	-684.28951	629.00133	-442.86912	-678.20827	654.73031	-363.51179	-569.81174	691.03214	-372.09384	-463.94428	725.11182	-397.47516	-452.16107	681.01518	-395.71089	-641.85283	839.16670	-832.90343	-694.80935	634.66826	-779.73107	-705.38814	635.59335	-851.56370	-599.10383	670.04936	-873.04117	-486.06640	704.05986	-863.91304	-473.30279	667.96442	-861.96617	-619.69505	494.30865	-518.73767	-621.04521	493.74731	-719.02470	-612.25131	491.53706	-521.46246	-618.56546	482.03466	-693.46238	
7	0.06000000	-247.97376	454.74003	-408.03024	-221.84585	388.56163	-381.50092	-276.02494	95.28982	-423.08171	-343.20225	59.08668	-460.57442	-173.02078	45.39162	-396.03822	-130.74789	65.32530	-451.04456	-253.64208	453.24985	-822.41222	-209.54055	392.40389	-831.46083	-270.28490	94.60307	-807.03807	-340.22263	59.31674	-759.68436	-177.85036	43.30702	-831.94255	-129.46222	66.55200	-777.80274	-233.80590	276.14076	-378.69127	-294.81993	394.61620	-397.98968	-313.43346	279.94881	-399.01437	-297.67697	404.78126	-842.59239	-302.26561	282.76963	-844.23340	-531.22925	564.50371	-478.15360	-423.46515	558.82108	-447.03669	-414.84663	518.76594	-394.46248	-555.37146	480.56717	-404.98154	-439.89357	466.93348	-388.98528	-524.68961	552.14438	-792.93170	-386.75557	544.97247	-803.02428	-536.33872	439.63156	-823.30369	-394.65029	440.82403	-833.10147	-588.99022	590.74605	-490.73018	-765.46870	530.77866	-563.26566	-593.08848	584.95679	-751.81158	-769.31801	524.88306	-669.98105	-719.76693	1021.31430	-611.82471	-647.93413	971.06124	-461.12725	-659.01077	973.02589	-781.81931	-596.21935	941.76726	-599.96243	-599.40505	940.71088	-644.09204	-655.72003	736.08137	-378.42384	-684.32267	629.05971	-442.62804	-678.15675	654.79514	-363.27945	-569.68893	690.97609	-372.05270	-463.84793	725.08739	-397.45457	-452.03766	680.99753	-395.70303	-641.83426	839.13151	-832.89931	-694.71599	633.95142	-779.71856	-705.42584	635.55844	-851.55806	-599.13344	670.01263	-873.02342	-486.10004	703.94728	-863.71488	-473.31436	667.90064	-861.94729	-619.68970	494.29600	-518.72435	-621.05543	493.70791	-719.01121	-612.31553	491.51398	-521.48934	-618.51990	482.01148	-693.49256	
